<svg width="1440" height="767" viewBox="0 0 1440 767" fill="none" xmlns="http://www.w3.org/2000/svg">
<path d="M-183.885 235.715C410.147 979.068 809.815 -238.951 1603.64 79.8302" stroke="black" stroke-opacity="0.2" stroke-width="0.2"/>
<path d="M-183.885 258.586C410.147 1001.94 809.815 -216.08 1603.64 102.701" stroke="black" stroke-opacity="0.2" stroke-width="0.2"/>
<path d="M-183.885 281.456C410.147 1024.81 809.815 -193.21 1603.64 125.572" stroke="black" stroke-opacity="0.2" stroke-width="0.2"/>
<path d="M-183.885 304.327C410.147 1047.68 809.815 -170.339 1603.64 148.442" stroke="black" stroke-opacity="0.2" stroke-width="0.2"/>
<path d="M-183.885 327.198C410.147 1070.55 809.815 -147.468 1603.64 171.313" stroke="black" stroke-opacity="0.2" stroke-width="0.2"/>
<path d="M-183.885 350.068C410.147 1093.42 809.815 -124.598 1603.64 194.183" stroke="black" stroke-opacity="0.2" stroke-width="0.2"/>
<path d="M-183.885 372.939C410.147 1116.29 809.815 -101.727 1603.64 217.054" stroke="black" stroke-opacity="0.2" stroke-width="0.2"/>
<path d="M-183.885 395.809C410.147 1139.16 809.815 -78.8565 1603.64 239.925" stroke="black" stroke-opacity="0.2" stroke-width="0.2"/>
<path d="M-183.885 418.68C410.147 1162.03 809.815 -55.9859 1603.64 262.795" stroke="black" stroke-opacity="0.2" stroke-width="0.2"/>
<path d="M-183.885 441.551C410.147 1184.9 809.815 -33.1153 1603.64 285.666" stroke="black" stroke-opacity="0.2" stroke-width="0.2"/>
<path d="M-183.885 464.421C410.147 1207.77 809.815 -10.2446 1603.64 308.536" stroke="black" stroke-opacity="0.2" stroke-width="0.2"/>
<path d="M-183.885 487.292C410.147 1230.65 809.815 12.626 1603.64 331.407" stroke="black" stroke-opacity="0.2" stroke-width="0.2"/>
</svg>
