<svg width="1440" height="1398" viewBox="0 0 1440 1398" fill="none" xmlns="http://www.w3.org/2000/svg">
<g opacity="0.8">
<path d="M-318.392 632.07C181.07 1173.73 1087.32 -92.6272 1788.31 474.181" stroke="#00AEB5" stroke-opacity="0.4" stroke-width="0.3"/>
<path d="M-318.392 642.44C181.07 1184.11 1087.32 -82.2569 1788.31 484.551" stroke="#00AEB5" stroke-opacity="0.4" stroke-width="0.3"/>
<path d="M-318.392 652.811C181.07 1194.48 1087.32 -71.8862 1788.31 494.922" stroke="#00AEB5" stroke-opacity="0.4" stroke-width="0.3"/>
<path d="M-318.392 663.181C181.07 1204.85 1087.32 -61.516 1788.31 505.292" stroke="#00AEB5" stroke-opacity="0.4" stroke-width="0.3"/>
<path d="M-318.392 673.551C181.07 1215.22 1087.32 -51.1455 1788.31 515.662" stroke="#00AEB5" stroke-opacity="0.4" stroke-width="0.3"/>
<path d="M-318.392 683.922C181.07 1225.59 1087.32 -40.7749 1788.31 526.033" stroke="#00AEB5" stroke-opacity="0.4" stroke-width="0.3"/>
<path d="M-318.392 694.292C181.07 1235.96 1087.32 -30.4047 1788.31 536.403" stroke="#00AEB5" stroke-opacity="0.4" stroke-width="0.3"/>
<path d="M-318.392 704.663C181.07 1246.33 1087.32 -20.0342 1788.31 546.774" stroke="#00AEB5" stroke-opacity="0.4" stroke-width="0.3"/>
<path d="M-318.392 715.033C181.07 1256.7 1087.32 -9.66372 1788.31 557.144" stroke="#00AEB5" stroke-opacity="0.4" stroke-width="0.3"/>
<path d="M-318.392 725.404C181.07 1267.07 1087.32 0.70689 1788.31 567.515" stroke="#00AEB5" stroke-opacity="0.4" stroke-width="0.3"/>
<path d="M-318.392 735.774C181.07 1277.44 1087.32 11.0771 1788.31 577.885" stroke="#00AEB5" stroke-opacity="0.4" stroke-width="0.3"/>
<path d="M-318.392 746.145C181.07 1287.81 1087.32 21.4476 1788.31 588.256" stroke="#00AEB5" stroke-opacity="0.4" stroke-width="0.3"/>
<path d="M-318.392 756.515C181.07 1298.18 1087.32 31.8181 1788.31 598.626" stroke="#00AEB5" stroke-opacity="0.4" stroke-width="0.3"/>
<path d="M-318.392 766.885C181.07 1308.55 1087.32 42.1885 1788.31 608.996" stroke="#00AEB5" stroke-opacity="0.4" stroke-width="0.3"/>
<path d="M-318.392 777.256C181.07 1318.92 1087.32 52.5591 1788.31 619.367" stroke="#00AEB5" stroke-opacity="0.4" stroke-width="0.3"/>
<path d="M-318.392 787.626C181.07 1329.29 1087.32 62.9294 1788.31 629.737" stroke="#00AEB5" stroke-opacity="0.4" stroke-width="0.3"/>
<path d="M-318.392 797.997C181.07 1339.66 1087.32 73.2998 1788.31 640.108" stroke="#00AEB5" stroke-opacity="0.4" stroke-width="0.3"/>
<path d="M-318.392 808.367C181.07 1350.03 1087.32 83.6704 1788.31 650.478" stroke="#00AEB5" stroke-opacity="0.4" stroke-width="0.3"/>
<path d="M-318.392 818.738C181.07 1360.4 1087.32 94.0406 1788.31 660.849" stroke="#00AEB5" stroke-opacity="0.4" stroke-width="0.3"/>
<path d="M-318.392 829.108C181.07 1370.77 1087.32 104.411 1788.31 671.219" stroke="#00AEB5" stroke-opacity="0.4" stroke-width="0.3"/>
<path d="M-318.392 839.479C181.07 1381.14 1087.32 114.782 1788.31 681.59" stroke="#00AEB5" stroke-opacity="0.4" stroke-width="0.3"/>
<path d="M-318.392 849.849C181.07 1391.51 1087.32 125.152 1788.31 691.96" stroke="#00AEB5" stroke-opacity="0.4" stroke-width="0.3"/>
<path d="M-318.392 860.219C181.07 1401.88 1087.32 135.522 1788.31 702.33" stroke="#00AEB5" stroke-opacity="0.4" stroke-width="0.3"/>
<path d="M-318.392 870.59C181.07 1412.25 1087.32 145.893 1788.31 712.701" stroke="#00AEB5" stroke-opacity="0.4" stroke-width="0.3"/>
<path d="M1824.14 332.055C1432.26 1011.71 84.3038 87.477 -520.45 855.835" stroke="#00AEB5" stroke-opacity="0.4" stroke-width="0.3"/>
<path d="M1827.06 342.003C1435.19 1021.65 87.2318 97.4254 -517.522 865.784" stroke="#00AEB5" stroke-opacity="0.4" stroke-width="0.3"/>
<path d="M1829.99 351.952C1438.12 1031.6 90.1597 107.374 -514.594 875.732" stroke="#00AEB5" stroke-opacity="0.4" stroke-width="0.3"/>
<path d="M1832.92 361.9C1441.05 1041.55 93.0876 117.323 -511.666 885.681" stroke="#00AEB5" stroke-opacity="0.4" stroke-width="0.3"/>
<path d="M1835.85 371.849C1443.97 1051.5 96.0156 127.271 -508.738 895.63" stroke="#00AEB5" stroke-opacity="0.4" stroke-width="0.3"/>
<path d="M1838.78 381.797C1446.9 1061.45 98.9436 137.22 -505.81 905.578" stroke="#00AEB5" stroke-opacity="0.4" stroke-width="0.3"/>
<path d="M1841.7 391.746C1449.83 1071.4 101.871 147.168 -502.882 915.527" stroke="#00AEB5" stroke-opacity="0.4" stroke-width="0.3"/>
<path d="M1844.63 401.694C1452.76 1081.35 104.799 157.117 -499.954 925.475" stroke="#00AEB5" stroke-opacity="0.4" stroke-width="0.3"/>
<path d="M1847.56 411.643C1455.69 1091.29 107.727 167.065 -497.026 935.424" stroke="#00AEB5" stroke-opacity="0.4" stroke-width="0.3"/>
<path d="M1850.49 421.592C1458.61 1101.24 110.655 177.014 -494.098 945.372" stroke="#00AEB5" stroke-opacity="0.4" stroke-width="0.3"/>
<path d="M1853.42 431.54C1461.54 1111.19 113.583 186.962 -491.171 955.321" stroke="#00AEB5" stroke-opacity="0.4" stroke-width="0.3"/>
<path d="M1856.34 441.489C1464.47 1121.14 116.511 196.911 -488.243 965.269" stroke="#00AEB5" stroke-opacity="0.4" stroke-width="0.3"/>
<path d="M1859.27 451.437C1467.4 1131.09 119.439 206.86 -485.315 975.218" stroke="#00AEB5" stroke-opacity="0.4" stroke-width="0.3"/>
<path d="M1862.2 461.385C1470.33 1141.04 122.367 216.808 -482.387 985.166" stroke="#00AEB5" stroke-opacity="0.4" stroke-width="0.3"/>
<path d="M1865.13 471.334C1473.25 1150.99 125.295 226.757 -479.459 995.115" stroke="#00AEB5" stroke-opacity="0.4" stroke-width="0.3"/>
<path d="M1868.05 481.283C1476.18 1160.93 128.223 236.705 -476.531 1005.06" stroke="#00AEB5" stroke-opacity="0.4" stroke-width="0.3"/>
<path d="M1870.98 491.231C1479.11 1170.88 131.151 246.654 -473.603 1015.01" stroke="#00AEB5" stroke-opacity="0.4" stroke-width="0.3"/>
<path d="M1873.91 501.18C1482.04 1180.83 134.079 256.602 -470.675 1024.96" stroke="#00AEB5" stroke-opacity="0.4" stroke-width="0.3"/>
<path d="M1876.84 511.128C1484.96 1190.78 137.006 266.551 -467.747 1034.91" stroke="#00AEB5" stroke-opacity="0.4" stroke-width="0.3"/>
<path d="M1879.77 521.077C1487.89 1200.73 139.934 276.499 -464.819 1044.86" stroke="#00AEB5" stroke-opacity="0.4" stroke-width="0.3"/>
<path d="M1882.69 531.025C1490.82 1210.68 142.862 286.448 -461.891 1054.81" stroke="#00AEB5" stroke-opacity="0.4" stroke-width="0.3"/>
<path d="M1885.62 540.974C1493.75 1220.62 145.79 296.396 -458.963 1064.75" stroke="#00AEB5" stroke-opacity="0.4" stroke-width="0.3"/>
<path d="M1888.55 550.922C1496.68 1230.57 148.718 306.345 -456.035 1074.7" stroke="#00AEB5" stroke-opacity="0.4" stroke-width="0.3"/>
<path d="M1891.48 560.871C1499.6 1240.52 151.646 316.293 -453.108 1084.65" stroke="#00AEB5" stroke-opacity="0.4" stroke-width="0.3"/>
</g>
</svg>
